<svg width="730" height="730" viewBox="0 0 730 730" fill="none" xmlns="http://www.w3.org/2000/svg">
    <path
        d="M347.678 671.729L91.3117 415.363C90.3219 420.312 88.9361 441.494 91.3117 486.631C93.6873 531.767 117.377 580.005 128.925 598.482C136.844 610.03 162.975 640.846 204.152 671.729C245.329 702.612 316.993 712.972 347.678 714.292V671.729Z"
        fill="#01FD69" />
    <path
        d="M382.322 671.729L638.688 415.363C639.678 420.312 641.064 441.494 638.688 486.631C636.313 531.767 612.623 580.005 601.075 598.482C593.156 610.03 567.025 640.846 525.848 671.729C484.671 702.612 413.007 712.972 382.322 714.292V671.729Z"
        fill="#01FD69" />
    <path
        d="M96.2612 375.77L347.678 627.187V391.607L163.57 207.499C119.225 270.056 100.221 345.745 96.2612 375.77Z"
        fill="#2CFC81" />
    <path
        d="M633.739 375.77L382.322 627.187V391.607L566.43 207.499C610.775 270.056 629.779 345.745 633.739 375.77Z"
        fill="#2CFC81" />
    <path
        d="M187.325 178.793L347.678 351.024V16.4612C268.491 59.2219 208.772 142.17 187.325 178.793Z"
        fill="#71FFAC" />
    <path
        d="M542.675 177.803L382.322 350.034V15.4712C461.509 58.2319 521.228 141.18 542.675 177.803Z"
        fill="#71FFAC" />
</svg>
    